<svg width="20" height="20" viewBox="0 0 20 20" fill="none" xmlns="http://www.w3.org/2000/svg">
<mask id="mask0_149_2912" style="mask-type:alpha" maskUnits="userSpaceOnUse" x="-1" y="0" width="21" height="20">
<rect x="-0.00012207" width="20" height="20" fill="#D9D9D9"/>
</mask>
<g mask="url(#mask0_149_2912)">
<path d="M5.16342 14.5704C5.87175 14.0608 6.62335 13.6578 7.41821 13.3615C8.21307 13.0649 9.07363 12.9167 9.99988 12.9167C10.9261 12.9167 11.7867 13.0649 12.5815 13.3615C13.3764 13.6578 14.128 14.0608 14.8363 14.5704C15.3866 14.001 15.8292 13.3285 16.164 12.5529C16.499 11.7772 16.6665 10.9262 16.6665 10C16.6665 8.15278 16.0172 6.57986 14.7186 5.28125C13.42 3.98264 11.8471 3.33333 9.99988 3.33333C8.15266 3.33333 6.57974 3.98264 5.28113 5.28125C3.98252 6.57986 3.33321 8.15278 3.33321 10C3.33321 10.9262 3.50071 11.7772 3.83571 12.5529C4.17057 13.3285 4.61314 14.001 5.16342 14.5704ZM10.0003 10.4167C9.29807 10.4167 8.70578 10.1756 8.22342 9.69354C7.74106 9.21146 7.49988 8.61931 7.49988 7.91708C7.49988 7.21486 7.74092 6.62257 8.223 6.14021C8.70509 5.65785 9.29724 5.41667 9.99946 5.41667C10.7017 5.41667 11.294 5.65771 11.7763 6.13979C12.2587 6.62188 12.4999 7.21403 12.4999 7.91625C12.4999 8.61847 12.2588 9.21076 11.7768 9.69312C11.2947 10.1755 10.7025 10.4167 10.0003 10.4167ZM9.99988 17.5C8.95391 17.5 7.97474 17.3053 7.06238 16.9158C6.15002 16.5264 5.3562 15.9941 4.68092 15.319C4.00578 14.6437 3.47349 13.8499 3.08404 12.9375C2.6946 12.0251 2.49988 11.046 2.49988 10C2.49988 8.95403 2.6946 7.97486 3.08404 7.0625C3.47349 6.15014 4.00578 5.35632 4.68092 4.68104C5.3562 4.0059 6.15002 3.47361 7.06238 3.08417C7.97474 2.69472 8.95391 2.5 9.99988 2.5C11.0458 2.5 12.025 2.69472 12.9374 3.08417C13.8497 3.47361 14.6436 4.0059 15.3188 4.68104C15.994 5.35632 16.5263 6.15014 16.9157 7.0625C17.3052 7.97486 17.4999 8.95403 17.4999 10C17.4999 11.046 17.3052 12.0251 16.9157 12.9375C16.5263 13.8499 15.994 14.6437 15.3188 15.319C14.6436 15.9941 13.8497 16.5264 12.9374 16.9158C12.025 17.3053 11.0458 17.5 9.99988 17.5ZM9.99988 16.6667C10.7681 16.6667 11.524 16.5323 12.2676 16.2635C13.0111 15.9949 13.6536 15.6272 14.1953 15.1602C13.6536 14.7253 13.027 14.3816 12.3155 14.129C11.604 13.8763 10.8321 13.75 9.99988 13.75C9.16766 13.75 8.39307 13.8737 7.67613 14.121C6.95932 14.3684 6.33543 14.7148 5.80446 15.1602C6.34613 15.6272 6.9887 15.9949 7.73217 16.2635C8.47578 16.5323 9.23168 16.6667 9.99988 16.6667ZM9.99988 9.58333C10.4678 9.58333 10.8626 9.42257 11.1843 9.10104C11.5058 8.77937 11.6665 8.38458 11.6665 7.91667C11.6665 7.44875 11.5058 7.05396 11.1843 6.73229C10.8626 6.41076 10.4678 6.25 9.99988 6.25C9.53196 6.25 9.13717 6.41076 8.8155 6.73229C8.49398 7.05396 8.33321 7.44875 8.33321 7.91667C8.33321 8.38458 8.49398 8.77937 8.8155 9.10104C9.13717 9.42257 9.53196 9.58333 9.99988 9.58333Z" fill="#1C1B1F"/>
</g>
</svg>
