<svg width="20" height="20" viewBox="0 0 20 20" fill="none" xmlns="http://www.w3.org/2000/svg">
<mask id="mask0_149_2906" style="mask-type:alpha" maskUnits="userSpaceOnUse" x="0" y="0" width="20" height="20">
<rect width="20" height="20" fill="#D9D9D9"/>
</mask>
<g mask="url(#mask0_149_2906)">
<path d="M2.91667 15.8334C2.79861 15.8334 2.69965 15.794 2.61979 15.7154C2.53993 15.6368 2.5 15.5394 2.5 15.4231C2.5 15.3547 2.51444 15.2904 2.54333 15.2302C2.57208 15.17 2.61535 15.122 2.67312 15.0865L9.58333 9.98398V8.49356C9.58333 8.37551 9.62445 8.27655 9.70667 8.19669C9.78889 8.11683 9.88826 8.0769 10.0048 8.0769C10.4269 8.0769 10.7907 7.92509 11.0963 7.62148C11.4018 7.31773 11.5546 6.95502 11.5546 6.53335C11.5546 6.11155 11.405 5.75058 11.1058 5.45044C10.8067 5.15016 10.4434 5.00002 10.016 5.00002C9.59396 5.00002 9.22938 5.14801 8.92229 5.44398C8.61507 5.74009 8.46146 6.0996 8.46146 6.52252H7.62813C7.62813 5.86655 7.85944 5.30988 8.32208 4.85252C8.78472 4.3953 9.34938 4.16669 10.016 4.16669C10.6827 4.16669 11.2447 4.39453 11.7019 4.85023C12.1592 5.30592 12.3879 5.8671 12.3879 6.53377C12.3879 7.12238 12.2022 7.63356 11.8308 8.06731C11.4596 8.50106 10.9882 8.7671 10.4167 8.86544V9.98398L17.3429 15.0865C17.4007 15.1211 17.444 15.1677 17.4727 15.2265C17.5016 15.2852 17.516 15.3492 17.516 15.4184C17.516 15.5359 17.4761 15.6344 17.3963 15.714C17.3164 15.7936 17.2174 15.8334 17.0994 15.8334H2.91667ZM4.19875 15H15.8173L10 10.7213L4.19875 15Z" fill="#1C1B1F"/>
</g>
</svg>
