<svg width="20" height="20" viewBox="0 0 20 20" fill="none" xmlns="http://www.w3.org/2000/svg">
<mask id="mask0_149_2909" style="mask-type:alpha" maskUnits="userSpaceOnUse" x="0" y="0" width="21" height="20">
<rect x="0.00012207" width="20" height="20" fill="#D9D9D9"/>
</mask>
<g mask="url(#mask0_149_2909)">
<path d="M5.513 17.5C5.12939 17.5 4.80911 17.3715 4.55216 17.1146C4.29522 16.8576 4.16675 16.5374 4.16675 16.1538V7.17958C4.16675 6.79597 4.29522 6.47569 4.55216 6.21875C4.80911 5.96181 5.12939 5.83333 5.513 5.83333H7.08341V5.41667C7.08341 4.60681 7.3671 3.91826 7.93446 3.35104C8.50168 2.78368 9.19022 2.5 10.0001 2.5C10.8099 2.5 11.4985 2.78368 12.0657 3.35104C12.6331 3.91826 12.9167 4.60681 12.9167 5.41667V5.83333H14.4872C14.8708 5.83333 15.1911 5.96181 15.448 6.21875C15.7049 6.47569 15.8334 6.79597 15.8334 7.17958V16.1538C15.8334 16.5374 15.7049 16.8576 15.448 17.1146C15.1911 17.3715 14.8708 17.5 14.4872 17.5H5.513ZM5.513 16.6667H14.4872C14.6155 16.6667 14.7331 16.6133 14.8399 16.5065C14.9467 16.3997 15.0001 16.2821 15.0001 16.1538V7.17958C15.0001 7.05125 14.9467 6.93368 14.8399 6.82688C14.7331 6.72007 14.6155 6.66667 14.4872 6.66667H12.9167V8.75C12.9167 8.86861 12.877 8.96771 12.7974 9.04729C12.7178 9.12688 12.6187 9.16667 12.5001 9.16667C12.3815 9.16667 12.2824 9.12688 12.2028 9.04729C12.1232 8.96771 12.0834 8.86861 12.0834 8.75V6.66667H7.91675V8.75C7.91675 8.86861 7.87696 8.96771 7.79737 9.04729C7.71779 9.12688 7.61869 9.16667 7.50008 9.16667C7.38147 9.16667 7.28237 9.12688 7.20279 9.04729C7.12321 8.96771 7.08341 8.86861 7.08341 8.75V6.66667H5.513C5.38466 6.66667 5.2671 6.72007 5.16029 6.82688C5.05348 6.93368 5.00008 7.05125 5.00008 7.17958V16.1538C5.00008 16.2821 5.05348 16.3997 5.16029 16.5065C5.2671 16.6133 5.38466 16.6667 5.513 16.6667ZM7.91675 5.83333H12.0834V5.41667C12.0834 4.83014 11.8829 4.33625 11.4817 3.935C11.0805 3.53389 10.5866 3.33333 10.0001 3.33333C9.41355 3.33333 8.91966 3.53389 8.51841 3.935C8.1173 4.33625 7.91675 4.83014 7.91675 5.41667V5.83333Z" fill="#1C1B1F"/>
</g>
</svg>
