<svg width="23" height="238" viewBox="0 0 23 238" fill="none" xmlns="http://www.w3.org/2000/svg">
<path d="M19.0459 229.5C19.0459 225.082 15.4642 221.5 11.0459 221.5C6.62762 221.5 3.0459 225.082 3.0459 229.5C3.0459 233.918 6.62762 237.5 11.0459 237.5C15.4642 237.5 19.0459 233.918 19.0459 229.5ZM12.1066 0.439346C11.5208 -0.146454 10.571 -0.146454 9.98524 0.439346L0.439296 9.98528C-0.146491 10.5711 -0.146491 11.5208 0.439296 12.1066C1.02508 12.6924 1.97483 12.6924 2.56062 12.1066L11.0459 3.62132L19.5312 12.1066C20.117 12.6924 21.0667 12.6924 21.6525 12.1066C22.2383 11.5208 22.2383 10.5711 21.6525 9.98528L12.1066 0.439346ZM11.0459 229.5L12.5459 229.5L12.5459 1.5L11.0459 1.5L9.5459 1.5L9.5459 229.5L11.0459 229.5Z" fill="#FF3131"/>
</svg>
